#!OML:ASF F:\VICON\USERDATA\INSTALL\rory3\rory3.ASF
:FULLY-SPECIFIED
:DEGREES
26
root 0.6401742681108644 17.977110759462285 -9.853147529072382 -0.859048834711361 -3.590058427432923 -6.719720163076756
lfemur -25.419196337436304 -7.151958918973613 -9.64519705506232
ltibia 13.362994382491184
lfoot -10.210330821581627 1.2493635822427414
ltoes -5.286959598059235
rfemur 4.1127056090639496 7.114058827681107 33.90308072938225
rtibia 27.93873513610972
rfoot -20.23049813342658 -7.0808125108310165
rtoes 1.8707907993559052
lowerback 10.4019142257511 1.6236007890320117 5.352372866726796
upperback -0.40034181120641654 2.719233623376748 1.9081187355165237
thorax -5.686316683830077 1.3208510110029184 -1.7796774964361484
lowerneck -15.87720548755492 -3.3115513527098352 -1.3467737263784685
upperneck 21.839411879615266 -4.634714404441818 0.1303721389224447
head 9.57650818157721 -2.1789489104894395 -0.34381533918910434
lclavicle -1.3902447902859475e-15 -1.857489325885426e-15
lhumerus -37.36583772010723 13.81573218225682 79.23199324826825
lradius 20.32148582512518
lwrist -0.07576628086234116
lhand -26.978256090569275 23.021601298472287
lfingers 7.125019999999999
lthumb -0.36279072739774465 53.21773103576053
rclavicle -1.3883990048980368e-15 -1.8446264125994395e-15
rhumerus -19.927247934881827 -11.79586043881531 -81.076761964411
rradius 30.10478965624749
rwrist -1.8673750570355008
rhand -17.534516776334872 22.60170654074684
rfingers 7.125019999999999
rthumb 8.797489521761339 -7.400996054148689
27
root 0.7063474250595435 17.9361997477705 -9.078027808501064 -1.0042061947918275 -3.4589854685895576 -6.563049043590931
lfemur -24.81541525244465 -5.653008544161767 -10.951926734848346
ltibia 14.929375869492745
lfoot -9.045545552754891 -0.005069965841312918
ltoes -3.2629765177723997
rfemur 5.321290493697161 7.202530536384061 33.65020947421222
rtibia 30.698727399310762
rfoot -19.027099815168594 -6.005046784229638
rtoes 1.9825593505737023
lowerback 10.261742343823192 1.6647062300931579 5.0495224059219534
upperback -0.37203900265172996 2.6909042690203635 1.6990685552021332
thorax -5.592544706387532 1.3543816080399114 -1.757340456510829
lowerneck -15.78737154255046 -3.38906566209033 -1.3278701650875566
upperneck 21.758733912685276 -4.807921913913601 0.23063096101658534
head 9.502221975020783 -2.198239490261012 -0.36230483420730897
lclavicle -1.3902658578796282e-15 -1.8575359043653967e-15
lhumerus -37.712911339257424 14.520505990574428 78.91530236618712
lradius 18.796063676412103
lwrist -1.8965303912865639
lhand -26.905433519549078 23.10470428190994
lfingers 7.125019999999999
lthumb -0.3084460694533927 53.173607531963164
rclavicle -1.3883808380110223e-15 -1.8446092924020175e-15
rhumerus -19.913345898552578 -12.392042506150975 -80.81625690065968
rradius 30.758527701594726
rwrist -1.6264597717258846
rhand -17.783065700930962 22.53407572786403
rfingers 7.125019999999999
rthumb 8.593084001717811 -7.585743719836546
28
root 0.7910171235875137 17.919715456241953 -7.952460613013349 -1.4492427939480736 -3.167665721163974 -5.98610359182406
lfemur -25.16372867968757 -4.123649384568505 -13.006654575877334
ltibia 20.445908904490224
lfoot -6.91197292832925 -2.0970314190904475
ltoes -3.3702319106157876
rfemur 6.090512766936916 6.950423311475247 32.90271684649102
rtibia 35.358092067288275
rfoot -16.58416865518786 -4.537379782939048
rtoes 2.0183358579930575
lowerback 10.088812818136807 1.6734027560622153 4.5893828383523
upperback -0.33562214189157347 2.606461895909551 1.409630821327332
thorax -5.482224563053801 1.3662200162999802 -1.6072787951005105
lowerneck -15.619252346800698 -3.414628439734439 -1.3372875515701685
upperneck 21.837915243529174 -4.879330780312572 0.239648793361778
head 9.476934089943374 -2.154721855370254 -0.37200814826999967
lclavicle -1.3902900724112267e-15 -1.8575179762195847e-15
lhumerus -37.75530629963143 14.574816307172053 78.93670431748204
lradius 17.727099262488622
lwrist -3.286400712116371
lhand -26.835828966512658 23.21248602908398
lfingers 7.125019999999999
lthumb -0.1515582214098462 53.38356587743788
rclavicle -1.388389632061227e-15 -1.8446173437243477e-15
rhumerus -20.74682296022508 -13.823881637366735 -80.30021111733869
rradius 31.20708374219537
rwrist -0.8915162770691882
rhand -18.1943405889518 22.493400353021634
rfingers 7.125019999999999
rthumb 8.153760742674216 -7.682341827956931
29
root 0.8785090971808445 17.92944498526223 -6.992078983625271 -2.1621302952453765 -2.6294033267502916 -4.685560091052276
lfemur -24.41583470427088 -4.234989359579731 -15.18985287671936
ltibia 24.12334754703626
lfoot -4.358749387567256 -4.960461696229851
ltoes -5.903663493741405
rfemur 5.677145123525682 5.915538023777929 31.23403328580749
rtibia 42.31833088893439
rfoot -12.101803621893282 -2.918419631252477
rtoes 2.941115143210445
lowerback 9.961252855413726 1.674151052868975 3.827731751334912
upperback -0.3043025153574388 2.5702205292702467 1.1554669492885827
thorax -5.4579362977307735 1.3439011986383789 -1.3976257479970677
lowerneck -15.418237650745157 -3.3657382691678985 -1.3895274752583056
upperneck 22.409696840754133 -4.881016182902268 0.2604603691569962
head 9.507134261491224 -2.097379755284783 -0.34468083301584207
lclavicle -1.3903204699132864e-15 -1.8576172186534733e-15
lhumerus -37.63325079934073 13.865929818225727 79.29866338576346
lradius 17.400939506906774
lwrist -3.9413142964920254
lhand -26.8768845878 22.968672334678462
lfingers 7.125019999999999
lthumb -0.18789660540679576 53.204531879608055
rclavicle -1.3883368042446203e-15 -1.844566527189294e-15
rhumerus -22.492873223707903 -15.673270717503012 -79.62117490786913
rradius 31.38795959075561
rwrist -0.29179703398594725
rhand -18.11285963941025 22.50609159772326
rfingers 7.125019999999999
rthumb 8.24711831898451 -7.673235324218453
30
root 0.9536100215219081 17.973468390095583 -5.83861813110833 -2.9297826559012115 -2.0743532420951647 -3.438822435712367
lfemur -22.85695828277345 -4.0561510851252685 -17.308191303437162
ltibia 26.83844201589531
lfoot -2.252507537095016 -6.597753062743607
ltoes -4.288140740709424
rfemur 4.009621867527324 4.575690869548876 29.319692716851762
rtibia 51.26536248532477
rfoot -5.201046820415567 -1.5016536495600867
rtoes 3.4095200465820357
lowerback 9.963578660448295 1.6276925186544342 2.6821097802000526
upperback -0.23410610800028273 2.422760429341333 0.8684213806852217
thorax -5.511843738936247 1.2860954984722015 -1.1237941644601606
lowerneck -15.316279927796987 -3.248583731521321 -1.4163678160741497
upperneck 22.963950500643694 -4.806529402666971 0.2633477794815938
head 9.589686728314339 -2.031640239845575 -0.3273156101277821
lclavicle -1.3903190008600162e-15 -1.8577011302669773e-15
lhumerus -37.21743082750538 13.066966190610405 79.6548676376619
lradius 17.761025145732667
lwrist -4.197161270270643
lhand -27.19758303584839 22.24061806834806
lfingers 7.125019999999999
lthumb -0.5256762624139402 52.522910548292295
rclavicle -1.388328234432196e-15 -1.844559269554067e-15
rhumerus -24.18708874224448 -17.47361783122048 -79.08071723540793
rradius 31.226341139507586
rwrist 0.09484587465529781
rhand -18.12783045863297 22.54752022043417
rfingers 7.125019999999999
rthumb 8.274761852810244 -7.246730502277038
31
root 1.0101491427727227 18.029733090987246 -5.032068877008101 -3.6174322460861736 -2.053283425072275 -2.4105868790280587
lfemur -20.761995626308146 -3.338712609386133 -19.117991624823738
ltibia 28.922766493420664
lfoot -1.249700527277585 -6.646801320207485
ltoes -2.7207091224501627
rfemur 0.6442068533213074 3.5378868891675186 27.30453965794011
rtibia 60.64752648735842
rfoot 2.6294767755089907 -1.1138712986789736
rtoes 4.482761470383961
lowerback 10.148087401499705 1.5680509530864115 1.7505608761614353
upperback -0.1259317637341 2.2628768860982755 0.6274810973441085
thorax -5.5643812748856565 1.1987244407269004 -0.7693832846220492
lowerneck -15.245883491578473 -3.0599031361822617 -1.5172477372020408
upperneck 23.185921580018082 -4.650898471805232 0.3289119073982912
head 9.58426254923484 -1.9476959171478156 -0.29327697089911686
lclavicle -1.3903468584750287e-15 -1.857680297935734e-15
lhumerus -36.6482101718576 12.237627930019858 79.93112892386178
lradius 18.587173349136755
lwrist -3.663066013234323
lhand -27.037141578656808 22.47628633047016
lfingers 7.125019999999999
lthumb -0.20603676163019735 52.960494328677186
rclavicle -1.3883089647544302e-15 -1.844540807008748e-15
rhumerus -25.587178622437854 -19.043063914720946 -78.75955594581433
rradius 30.72711735214874
rwrist 1.3300333465995724
rhand -18.32712848382473 22.40853504502601
rfingers 7.125019999999999
rthumb 8.018553784639634 -7.35005224513934
32
root 1.0445636538644245 18.077308780720976 -4.0635416092979035 -4.162949196187644 -2.0645164755645684 -0.8071226293453064
lfemur -17.872651554256876 -3.42567228437705 -21.347755623296948
ltibia 29.334412026904666
lfoot -3.1243433979775936 -4.427591600588697
ltoes -2.6398045017609673
rfemur -3.9729629472664847 2.779592985634097 25.21341311064101
rtibia 68.43917230147419
rfoot 7.809323376968056 -2.5569896064275297
rtoes 5.094158746208485
lowerback 10.465232587273626 1.4370165664670116 0.45065271476718305
upperback 0.010419799410875286 1.9769649679512118 0.3943641104110531
thorax -5.6057056753347965 1.0717667155756225 -0.3568224038385055
lowerneck -15.205289946956587 -2.893914543697066 -1.5656753663332448
upperneck 23.454231720026968 -4.449286985986953 0.43398484369220625
head 9.685582267251363 -1.8756946011919369 -0.23627215139877203
lclavicle -1.390339421149854e-15 -1.857646281583433e-15
lhumerus -35.58103854722288 10.657328374892177 80.5180890465148
lradius 19.495978994212944
lwrist -1.9883643182432693
lhand -27.033161062417765 22.514657456517455
lfingers 7.125019999999999
lthumb -0.26689407002573984 52.86760601350018
rclavicle -1.3882785233157039e-15 -1.844512776345752e-15
rhumerus -26.685115044921915 -20.58029811163048 -78.60340081958236
rradius 29.91080214328129
rwrist 2.9788580502921924
rhand -18.353039508497595 22.209582570825685
rfingers 7.125019999999999
rthumb 7.985539199811753 -7.597862212067782
